<svg width="23" height="23" viewBox="0 0 23 23" fill="none" xmlns="http://www.w3.org/2000/svg">
<rect width="22.0763" height="22.0763" transform="translate(0.396484 0.796875)" fill="white"/>
<path d="M17.8738 10.916H4.99594C3.97991 10.916 3.15625 11.7397 3.15625 12.7557V19.1946C3.15625 20.2107 3.97991 21.0343 4.99594 21.0343H17.8738C18.8898 21.0343 19.7135 20.2107 19.7135 19.1946V12.7557C19.7135 11.7397 18.8898 10.916 17.8738 10.916Z" stroke="black" stroke-opacity="0.9" stroke-linecap="round" stroke-linejoin="round"/>
<path d="M6.83496 10.9153V7.23595C6.83496 6.01616 7.31952 4.84633 8.18205 3.9838C9.04457 3.12128 10.2144 2.63672 11.4342 2.63672C12.654 2.63672 13.8238 3.12128 14.6863 3.9838C15.5489 4.84633 16.0334 6.01616 16.0334 7.23595V10.9153" stroke="black" stroke-opacity="0.9" stroke-linecap="round" stroke-linejoin="round"/>
</svg>
